<?xml version="1.0" encoding="UTF-8"?>
<!DOCTYPE svg PUBLIC "-//W3C//DTD SVG 1.1//EN" "http://www.w3.org/Graphics/SVG/1.1/DTD/svg11.dtd">
<!-- Creator: CorelDRAW 2018 (64-Bit) -->
<svg xmlns="http://www.w3.org/2000/svg" xml:space="preserve" width="64px" height="70px" version="1.1" style="shape-rendering:geometricPrecision; text-rendering:geometricPrecision; image-rendering:optimizeQuality; fill-rule:evenodd; clip-rule:evenodd"
viewBox="0 0 10.4 11.39"
 xmlns:xlink="http://www.w3.org/1999/xlink">
 <defs>
  <style type="text/css">
   <![CDATA[
    .fil0 {fill:white}
   ]]>
  </style>
 </defs>
 <g id="Layer_x0020_1">
  <metadata id="CorelCorpID_0Corel-Layer"/>
  <path class="fil0" d="M5.2 11.39c-0.34,0 -0.67,-0.08 -0.91,-0.22l-3.38 -1.95c-0.5,-0.29 -0.91,-1 -0.91,-1.58l0 -3.9c0,-0.58 0.41,-1.29 0.91,-1.58l3.38 -1.95c0.49,-0.28 1.33,-0.28 1.82,0l3.38 1.95c0.5,0.29 0.91,1 0.91,1.58l0 3.9c0,0.58 -0.41,1.29 -0.91,1.58l-3.38 1.95c-0.24,0.14 -0.57,0.22 -0.91,0.22zm0 -8.28c-0.31,0 -0.57,-0.16 -0.57,-0.35 0,-0.19 0.26,-0.35 0.57,-0.35 0.31,0 0.57,0.16 0.57,0.35 0,0.19 -0.26,0.35 -0.57,0.35zm-4.15 5.13c-0.18,0 -0.34,-0.23 -0.34,-0.51 0,-0.28 0.16,-0.51 0.34,-0.51 0.19,0 0.35,0.23 0.35,0.51 0,0.28 -0.16,0.51 -0.35,0.51zm8.17 0c-0.18,0 -0.34,-0.23 -0.34,-0.51 0,-0.28 0.16,-0.51 0.34,-0.51 0.19,0 0.35,0.23 0.35,0.51 0,0.28 -0.16,0.51 -0.35,0.51zm-8.17 -2.94c-0.18,0 -0.34,-0.23 -0.34,-0.51 0,-0.27 0.16,-0.51 0.34,-0.51 0.19,0 0.35,0.24 0.35,0.51 0,0.28 -0.16,0.51 -0.35,0.51zm2.9 1.9c-0.19,0 -0.35,-0.24 -0.35,-0.52 0,-0.27 0.16,-0.51 0.35,-0.51 0.19,0 0.35,0.24 0.35,0.51 0,0.28 -0.16,0.52 -0.35,0.52zm2.47 0c-0.19,0 -0.35,-0.24 -0.35,-0.52 0,-0.27 0.16,-0.51 0.35,-0.51 0.19,0 0.35,0.24 0.35,0.51 0,0.28 -0.16,0.52 -0.35,0.52zm-2.47 2.71c-0.19,0 -0.35,-0.24 -0.35,-0.51 0,-0.28 0.16,-0.52 0.35,-0.52 0.19,0 0.35,0.24 0.35,0.52 0,0.27 -0.16,0.51 -0.35,0.51zm1.72 1.02c-0.2,0 -0.22,-0.25 -0.22,-0.36l0 -3.9c0,-0.45 0.33,-1.03 0.73,-1.26l3.37 -1.95c0.09,-0.05 0.18,-0.08 0.25,-0.08 0.21,0 0.23,0.25 0.23,0.36l0 3.9c0,0.45 -0.33,1.03 -0.73,1.26l-3.37 1.95c-0.09,0.05 -0.18,0.08 -0.26,0.08l0 0zm-0.98 0c-0.08,0 -0.17,-0.03 -0.26,-0.08l-3.37 -1.95c-0.4,-0.23 -0.73,-0.81 -0.73,-1.26l0 -3.9c0,-0.11 0.02,-0.36 0.23,-0.36 0.07,0 0.16,0.03 0.25,0.08l3.37 1.95c0.4,0.23 0.73,0.81 0.73,1.26l0 3.9c0,0.13 -0.02,0.23 -0.07,0.29 -0.04,0.05 -0.09,0.07 -0.15,0.07l0 0zm0.51 -5.77c-0.28,0 -0.54,-0.07 -0.73,-0.17l-3.37 -1.95c-0.15,-0.09 -0.23,-0.19 -0.23,-0.28 0,-0.09 0.08,-0.2 0.23,-0.28l3.37 -1.95c0.19,-0.11 0.45,-0.17 0.73,-0.17 0.28,0 0.54,0.06 0.73,0.17l3.37 1.95c0.15,0.08 0.23,0.19 0.23,0.28 0,0.09 -0.08,0.19 -0.23,0.28l-3.37 1.94c-0.19,0.11 -0.45,0.18 -0.73,0.18z"/>
 </g>
</svg>
