<?xml version="1.0" encoding="UTF-8" standalone="no"?>
<!DOCTYPE svg PUBLIC "-//W3C//DTD SVG 1.1//EN" "http://www.w3.org/Graphics/SVG/1.1/DTD/svg11.dtd">
<svg version="1.1" xmlns="http://www.w3.org/2000/svg" xmlns:xlink="http://www.w3.org/1999/xlink" preserveAspectRatio="xMidYMid meet" viewBox="138.01408450704224 118.64788732394383 75.47887323943667 53.999999999999986" width="71.48" height="50"><defs><path d="M175.44 121.88L176.72 122.03L177.99 122.23L179.24 122.49L180.47 122.8L181.68 123.16L182.87 123.58L184.04 124.05L185.18 124.56L186.29 125.12L187.38 125.73L188.44 126.39L189.48 127.08L190.48 127.83L191.45 128.61L192.39 129.43L193.29 130.29L194.16 131.19L194.99 132.13L195.78 133.1L196.54 134.1L197.25 135.14L197.93 136.21L198.56 137.31L199.15 138.44L199.69 139.59L200.19 140.77L200.64 141.98L201.04 143.21L201.39 144.47L201.69 145.74L201.94 147.04L202.14 148.35L202.28 149.68L202.37 151.03L202.39 152.39L202.37 153.76L202.28 155.11L202.14 156.44L201.94 157.75L201.69 159.05L201.39 160.32L201.04 161.58L200.64 162.81L200.19 164.02L199.69 165.2L199.15 166.35L198.56 167.48L197.93 168.58L197.25 169.65L148.38 169.65L147.71 168.58L147.07 167.48L146.49 166.35L145.94 165.2L145.45 164.02L145 162.81L144.59 161.58L144.24 160.32L143.94 159.05L143.69 157.75L143.5 156.44L143.35 155.11L143.27 153.76L143.24 152.39L143.27 151.03L143.35 149.68L143.5 148.35L143.69 147.04L143.94 145.74L144.24 144.47L144.59 143.21L145 141.98L145.45 140.77L145.94 139.59L146.49 138.44L147.07 137.31L147.71 136.21L148.38 135.14L149.1 134.1L149.85 133.1L150.65 132.13L151.48 131.19L152.35 130.29L153.25 129.43L154.19 128.61L155.16 127.83L156.16 127.08L157.19 126.39L158.25 125.73L159.34 125.12L160.46 124.56L161.6 124.05L162.76 123.58L163.95 123.16L165.16 122.8L166.39 122.49L167.64 122.23L168.91 122.03L170.2 121.88L171.5 121.79L172.82 121.76L174.13 121.79L175.44 121.88Z" id="ajqcJzz5l"></path><path d="M156.5 140.64L157.62 140.91L158.72 141.27L159.79 141.73L160.81 142.28L161.79 142.92L162.73 143.65L163.62 144.45L164.46 145.32L165.24 146.27L165.97 147.28L166.63 148.36L167.23 149.49L167.76 150.68L168.21 151.92L168.59 153.21L168.9 154.54L169.12 155.9L169.25 157.3L169.3 158.73L169.25 160.16L169.12 161.56L168.9 162.93L168.59 164.26L168.21 165.54L167.76 166.78L167.23 167.97L166.63 169.11L166.3 169.65L142.01 169.65L141.68 169.11L141.08 167.97L140.55 166.78L140.1 165.54L139.72 164.26L139.41 162.93L139.19 161.56L139.06 160.16L139.01 158.73L139.06 157.3L139.19 155.9L139.41 154.54L139.72 153.21L140.1 151.92L140.55 150.68L141.08 149.49L141.68 148.36L142.34 147.28L143.07 146.27L143.85 145.32L144.69 144.45L145.58 143.65L146.52 142.92L147.5 142.28L148.52 141.73L149.59 141.27L150.69 140.91L151.81 140.64L152.97 140.48L154.15 140.42L155.34 140.48L156.5 140.64Z" id="a2cV1Fpn7H"></path><path d="M184.21 119.8L185.3 119.98L186.38 120.23L187.44 120.55L188.48 120.93L189.5 121.38L190.49 121.89L191.47 122.46L192.42 123.1L193.34 123.78L194.24 124.53L195.11 125.33L195.95 126.18L196.75 127.08L197.53 128.03L198.27 129.03L198.98 130.07L199.65 131.15L200.28 132.28L200.87 133.45L201.43 134.65L201.94 135.89L202.41 137.17L202.84 138.48L203.22 139.82L203.55 141.19L203.84 142.59L204.08 144.01L204.26 145.46L204.4 146.93L204.48 148.42L204.51 149.93L204.48 151.44L204.4 152.93L204.26 154.4L204.08 155.85L203.84 157.27L203.55 158.67L203.22 160.04L202.84 161.38L202.41 162.69L201.94 163.97L201.43 165.21L200.87 166.41L200.28 167.58L199.65 168.71L199.07 169.65L164.88 169.65L164.3 168.71L163.66 167.58L163.07 166.41L162.52 165.21L162 163.97L161.53 162.69L161.11 161.38L160.73 160.04L160.39 158.67L160.11 157.27L159.87 155.85L159.68 154.4L159.55 152.93L159.46 151.44L159.44 149.93L159.46 148.42L159.55 146.93L159.68 145.46L159.87 144.01L160.11 142.59L160.39 141.19L160.73 139.82L161.11 138.48L161.53 137.17L162 135.89L162.52 134.65L163.07 133.45L163.66 132.28L164.3 131.15L164.97 130.07L165.67 129.03L166.42 128.03L167.19 127.08L168 126.18L168.84 125.33L169.7 124.53L170.6 123.78L171.53 123.1L172.48 122.46L173.45 121.89L174.45 121.38L175.47 120.93L176.51 120.55L177.57 120.23L178.64 119.98L179.74 119.8L180.85 119.68L181.97 119.65L183.1 119.68L184.21 119.8Z" id="a2Yyi9HzZN"></path><path d="M188.31 138.06C188.31 141.7 185.47 144.65 181.97 144.65C178.47 144.65 175.63 141.7 175.63 138.06C175.63 134.43 178.47 131.48 181.97 131.48C185.47 131.48 188.31 134.43 188.31 138.06Z" id="aEj7sbuD"></path><path d="M192.69 139.39L194.04 139.59L195.37 139.87L196.66 140.22L197.91 140.64L199.12 141.13L200.29 141.68L201.41 142.29L202.48 142.97L203.5 143.7L204.46 144.49L205.36 145.33L206.2 146.21L206.97 147.15L207.68 148.12L208.31 149.14L208.87 150.2L209.36 151.29L209.76 152.41L210.07 153.57L210.3 154.75L210.45 155.95L210.49 157.18L210.45 158.41L210.3 159.62L210.07 160.8L209.76 161.95L209.36 163.08L208.87 164.17L208.31 165.23L207.68 166.24L206.97 167.22L206.2 168.15L205.36 169.04L204.7 169.65L175.08 169.65L174.43 169.04L173.59 168.15L172.82 167.22L172.11 166.24L171.48 165.23L170.92 164.17L170.43 163.08L170.03 161.95L169.71 160.8L169.48 159.62L169.34 158.41L169.3 157.18L169.34 155.95L169.48 154.75L169.71 153.57L170.03 152.41L170.43 151.29L170.92 150.2L171.48 149.14L172.11 148.12L172.82 147.15L173.59 146.21L174.43 145.33L175.33 144.49L176.29 143.7L177.31 142.97L178.38 142.29L179.5 141.68L180.67 141.13L181.88 140.64L183.13 140.22L184.42 139.87L185.75 139.59L187.1 139.39L188.48 139.27L189.89 139.23L191.3 139.27L192.69 139.39Z" id="ajIM7SK4H"></path></defs><g><g><use xlink:href="#ajqcJzz5l" opacity="1" fill="#5c5b5b" fill-opacity="1"></use></g><g><use xlink:href="#a2cV1Fpn7H" opacity="1" fill="#989898" fill-opacity="1"></use></g><g><use xlink:href="#a2Yyi9HzZN" opacity="1" fill="#848484" fill-opacity="1"></use></g><g><use xlink:href="#aEj7sbuD" opacity="1" fill="#6e6e6e" fill-opacity="1"></use></g><g><use xlink:href="#ajIM7SK4H" opacity="1" fill="#939393" fill-opacity="1"></use></g></g></svg>