<?xml version="1.0" encoding="UTF-8"?>
<!DOCTYPE svg PUBLIC "-//W3C//DTD SVG 1.1//EN" "http://www.w3.org/Graphics/SVG/1.1/DTD/svg11.dtd">
<!-- Creator: CorelDRAW 2018 (64-Bit) -->
<svg xmlns="http://www.w3.org/2000/svg" xml:space="preserve" width="50px" height="50px" version="1.1" style="shape-rendering:geometricPrecision; text-rendering:geometricPrecision; image-rendering:optimizeQuality; fill-rule:evenodd; clip-rule:evenodd"
viewBox="0 0 9.54 9.54"
 xmlns:xlink="http://www.w3.org/1999/xlink">
 <defs>
  <style type="text/css">
   <![CDATA[
    .fil4 {fill:#FEFEFE}
    .fil5 {fill:#373435}
    .fil3 {fill:#605F54}
    .fil0 {fill:#FCD3C2}
    .fil2 {fill:#FDD1A1}
    .fil1 {fill:#3E4095}
   ]]>
  </style>
 </defs>
 <g id="Layer_x0020_1">
  <metadata id="CorelCorpID_0Corel-Layer"/>
  <ellipse class="fil0" cx="4.77" cy="6.09" rx="3.12" ry="3.21"/>
  <path class="fil1" d="M4.77 9.54c2.64,0 4.77,-2.2 4.77,-4.91 0,-0.22 -0.01,-0.43 -0.04,-0.65l-2.37 0c0.47,0.57 0.76,1.3 0.76,2.11 0,1.77 -1.4,3.21 -3.12,3.21 -1.72,0 -3.12,-1.44 -3.12,-3.21 0,-0.81 0.29,-1.54 0.76,-2.11l-2.37 0c-0.03,0.22 -0.04,0.43 -0.04,0.65 0,2.71 2.14,4.91 4.77,4.91z"/>
  <path class="fil2" d="M2.46 3.93c-0.66,-1.15 -0.53,-2.36 0,-3.6 -1.29,0.74 -2.22,2.08 -2.42,3.65l2.37 0c0.02,-0.02 0.04,-0.03 0.05,-0.05z"/>
  <path class="fil2" d="M7.08 3.93c0.66,-1.15 0.53,-2.36 0,-3.6 1.29,0.74 2.22,2.08 2.42,3.65l-2.37 0c-0.02,-0.02 -0.04,-0.03 -0.05,-0.05z"/>
  <path class="fil2" d="M6.53 0.64c-0.18,0.1 -0.29,0.24 -0.29,0.4 0,0.3 0.37,0.54 0.84,0.54 0.23,0 0.45,-0.06 0.6,-0.16 0.03,-0.01 0.05,-0.03 0.07,-0.05 0.01,-0.01 0.01,-0.01 0.01,-0.01 0.1,-0.09 0.16,-0.2 0.16,-0.32 0,-0.09 -0.04,-0.18 -0.1,-0.25 -0.05,-0.14 -0.14,-0.29 -0.26,-0.42 -0.31,-0.35 -0.74,-0.47 -0.95,-0.27 -0.13,0.12 -0.15,0.32 -0.08,0.54z"/>
  <path class="fil2" d="M3.02 0.64c0.17,0.1 0.29,0.24 0.29,0.4 0,0.3 -0.38,0.54 -0.85,0.54 -0.23,0 -0.45,-0.06 -0.6,-0.16 -0.03,-0.01 -0.05,-0.03 -0.07,-0.05 0,-0.01 -0.01,-0.01 -0.01,-0.01 -0.1,-0.09 -0.16,-0.2 -0.16,-0.32 0,-0.09 0.04,-0.18 0.1,-0.25 0.05,-0.14 0.14,-0.29 0.26,-0.42 0.32,-0.35 0.74,-0.47 0.96,-0.27 0.12,0.12 0.14,0.32 0.08,0.54z"/>
  <path class="fil3" d="M1.65 6.09c0,1.77 1.4,3.21 3.12,3.21 1.72,0 3.12,-1.44 3.12,-3.21 0,-0.28 -0.03,-0.55 -0.1,-0.81 -0.88,-0.31 -1.91,-0.5 -3.02,-0.5 -1.1,0 -2.14,0.19 -3.02,0.5 -0.06,0.26 -0.1,0.53 -0.1,0.81z"/>
  <g id="_2058971817184">
   <g>
    <ellipse class="fil4" transform="matrix(-0.0536871 -0.0120251 0.0116822 -0.055263 5.67751 3.80623)" rx="6.96" ry="4.15"/>
    <ellipse class="fil5" transform="matrix(-0.0536871 -0.0120251 0.0116822 -0.055263 5.69247 3.73546)" rx="3.38" ry="2.87"/>
   </g>
   <g>
    <ellipse class="fil4" transform="matrix(0.0536871 -0.0120251 -0.0116822 -0.055263 3.8642 3.80623)" rx="6.96" ry="4.15"/>
    <ellipse class="fil5" transform="matrix(0.0536871 -0.0120251 -0.0116822 -0.055263 3.84924 3.73546)" rx="3.38" ry="2.87"/>
   </g>
  </g>
 </g>
</svg>
